<svg width="15" height="12" viewBox="0 0 15 12" fill="none" xmlns="http://www.w3.org/2000/svg">
<g clip-path="url(#clip0_12_136)">
<path d="M9.49856 3.16055C9.86438 2.66227 10.6 2.41336 11.0312 2.66273C11.4624 2.91211 11.4848 3.60773 11.1195 4.10602" fill="white"/>
<path d="M10.3102 3.47906C8.80294 2.63789 6.7932 3.03211 5.67253 4.3425L1.05456 11.1888L2.41057 11.7063C2.41057 11.7063 6.1264 8.65945 6.15175 8.67328C7.74978 9.56508 10.1974 9.32156 11.2668 7.81734C12.3363 6.31313 11.9083 4.37086 10.3102 3.47906Z" fill="white"/>
<path d="M2.80788 6.65063C2.76882 6.65063 2.73061 6.64061 2.69794 6.6218L1.63064 6.00352C1.5863 5.97784 1.55539 5.93775 1.54471 5.89206C1.53403 5.84637 1.54444 5.79883 1.57367 5.75988C1.6029 5.72094 1.64854 5.69379 1.70055 5.68441C1.75257 5.67502 1.8067 5.68417 1.85104 5.70984L2.91834 6.32813C2.95426 6.34894 2.98158 6.37937 2.99625 6.41491C3.01093 6.45044 3.01217 6.48918 2.9998 6.52538C2.98743 6.56158 2.9621 6.59331 2.92758 6.61587C2.89306 6.63844 2.85117 6.65062 2.80814 6.65063H2.80788ZM2.5664 7.53164H2.55599L1.28029 7.47352C1.25401 7.47232 1.22826 7.46658 1.2045 7.45664C1.18075 7.4467 1.15945 7.43274 1.14184 7.41557C1.10626 7.38089 1.08782 7.33522 1.09058 7.2886C1.09334 7.24198 1.11707 7.19823 1.15655 7.16698C1.19603 7.13572 1.24803 7.11953 1.30111 7.12195L2.57654 7.17984C2.62961 7.18103 2.67998 7.20068 2.71656 7.23448C2.75314 7.26828 2.77293 7.31346 2.77159 7.36008C2.77024 7.4067 2.74787 7.45094 2.70939 7.48307C2.67091 7.5152 2.61947 7.53259 2.5664 7.53141V7.53164ZM3.6209 6.09914C3.58366 6.09908 3.54717 6.08993 3.51551 6.07272C3.48385 6.0555 3.45826 6.03089 3.44159 6.00164L2.86765 4.98867C2.85512 4.96795 2.84745 4.94523 2.84507 4.92186C2.8427 4.89849 2.84568 4.87494 2.85383 4.8526C2.86198 4.83026 2.87514 4.80957 2.89254 4.79177C2.90993 4.77396 2.93121 4.7594 2.95512 4.74893C2.97902 4.73846 3.00507 4.7323 3.03173 4.73082C3.05839 4.72933 3.08512 4.73255 3.11034 4.74028C3.13556 4.74801 3.15876 4.7601 3.17858 4.77583C3.19839 4.79156 3.21443 4.81062 3.22573 4.83188L3.79994 5.84484C3.81167 5.86551 3.81864 5.88801 3.82047 5.91104C3.8223 5.93408 3.81894 5.9572 3.81059 5.9791C3.80224 6.001 3.78906 6.02123 3.77181 6.03865C3.75455 6.05607 3.73355 6.07034 3.71002 6.08063C3.68238 6.09286 3.65185 6.09921 3.6209 6.09914Z" fill="white"/>
<path d="M9.90768 6.94293C10.4039 6.14914 10.1195 5.1745 9.27251 4.766C8.42552 4.3575 7.33665 4.66984 6.84045 5.46363C6.34426 6.25742 6.62863 7.23206 7.47562 7.64056C8.32261 8.04906 9.41148 7.73672 9.90768 6.94293Z" fill="white"/>
<path d="M5.01506 7.05117L4.10465 8.35453L3.28629 7.88086L4.17616 6.56086L5.01506 7.05117Z" fill="white"/>
<path d="M11.8688 3.4411C11.697 3.44047 11.5255 3.42658 11.3565 3.39961C10.3609 3.24539 9.72269 2.66391 9.36274 2.20313C8.93128 1.65094 8.66899 0.968203 8.66125 0.376406C8.66061 0.329927 8.68098 0.285122 8.7179 0.251818C8.75481 0.218513 8.80526 0.199429 8.85817 0.19875H8.86057C8.91324 0.198746 8.96378 0.216976 9.00124 0.249487C9.0387 0.281997 9.06006 0.326168 9.06069 0.372422C9.07324 1.34484 9.902 2.81742 11.4253 3.05344C12.8579 3.27539 13.3918 2.4075 13.8631 1.64156C13.8871 1.60266 13.9105 1.56398 13.9343 1.52625C13.9463 1.50517 13.9631 1.48643 13.9836 1.47116C14.004 1.45589 14.0278 1.44439 14.0534 1.43735C14.0791 1.43031 14.106 1.42788 14.1328 1.43019C14.1595 1.4325 14.1854 1.43952 14.209 1.45082C14.2326 1.46211 14.2533 1.47746 14.27 1.49595C14.2867 1.51444 14.2989 1.53569 14.3061 1.55843C14.3132 1.58117 14.3151 1.60494 14.3115 1.62832C14.308 1.6517 14.2991 1.67422 14.2854 1.69453L14.215 1.80867C13.7849 2.50922 13.2117 3.4411 11.8688 3.4411Z" fill="white"/>
<path d="M3.44933 6.00891C3.473 6.05065 3.51458 6.08242 3.56492 6.09723C3.61526 6.11204 3.67024 6.10868 3.71776 6.08789C3.76528 6.0671 3.80145 6.03058 3.81831 5.98636C3.83518 5.94214 3.83135 5.89385 3.80768 5.85211L3.23347 4.83914C3.20959 4.79776 3.16806 4.76635 3.11793 4.75175C3.0678 4.73715 3.01313 4.74056 2.96584 4.76122C2.91855 4.78188 2.88248 4.81812 2.86549 4.86204C2.84849 4.90597 2.85195 4.95401 2.87512 4.9957L3.44933 6.00891ZM1.29017 7.48078L2.56587 7.53867H2.57627C2.62935 7.53985 2.68078 7.52247 2.71926 7.49033C2.75774 7.4582 2.78012 7.41396 2.78146 7.36734C2.78281 7.32072 2.76301 7.27554 2.72643 7.24174C2.68985 7.20794 2.63949 7.18829 2.58641 7.18711L1.31098 7.12922C1.2579 7.12679 1.20591 7.14299 1.16642 7.17424C1.12694 7.20549 1.10321 7.24924 1.10045 7.29586C1.09769 7.34248 1.11613 7.38815 1.15171 7.42283C1.18729 7.45751 1.23709 7.47836 1.29017 7.48078ZM1.63971 6.01055L2.70702 6.62883C2.7396 6.64781 2.77785 6.65792 2.81695 6.65789C2.85998 6.65789 2.90186 6.6457 2.93639 6.62314C2.97091 6.60058 2.99624 6.56884 3.00861 6.53264C3.02098 6.49644 3.01973 6.4577 3.00506 6.42217C2.99039 6.38664 2.96307 6.35621 2.92715 6.33539L1.85984 5.71711C1.83791 5.70412 1.81327 5.69509 1.78734 5.69052C1.76141 5.68595 1.7347 5.68595 1.70877 5.6905C1.68284 5.69505 1.65819 5.70407 1.63625 5.71704C1.61431 5.73002 1.59551 5.74668 1.58095 5.76607C1.56639 5.78546 1.55634 5.80719 1.5514 5.83001C1.54645 5.85283 1.54671 5.87629 1.55215 5.89902C1.55759 5.92176 1.5681 5.94332 1.58309 5.96246C1.59807 5.9816 1.61722 5.99795 1.63944 6.01055H1.63971ZM14.2214 1.4632C14.1748 1.44092 14.12 1.43581 14.069 1.449C14.0181 1.46218 13.9752 1.49258 13.9498 1.53351L13.8785 1.64906C13.4311 2.3768 12.9265 3.19594 11.6479 3.08601C11.6057 2.80734 11.4629 2.56594 11.2247 2.42812C11.0195 2.30859 10.7473 2.27203 10.4621 2.325C10.3381 2.34848 10.218 2.38549 10.1045 2.43516C9.43746 1.85742 9.08392 1.0125 9.07564 0.379686C9.07515 0.333413 9.05388 0.289183 9.01645 0.256615C8.97903 0.224048 8.92847 0.205778 8.87579 0.20578H8.87339C8.84711 0.206055 8.82115 0.210875 8.79699 0.219964C8.77283 0.229054 8.75094 0.242234 8.73258 0.258753C8.71422 0.275272 8.69975 0.294806 8.68998 0.31624C8.68022 0.337673 8.67535 0.360586 8.67567 0.383671C8.68341 0.975233 8.94543 1.6582 9.37716 2.21039C9.49347 2.3592 9.62331 2.49951 9.76539 2.62992C9.66948 2.70034 9.5822 2.77936 9.50497 2.8657C8.97484 2.74888 8.42111 2.7415 7.8872 2.84414C6.98239 3.01547 6.16856 3.47883 5.59542 4.14914C5.59093 4.15421 5.58683 4.15953 5.58315 4.16508L0.964371 11.0114C0.94995 11.0329 0.940879 11.0568 0.937756 11.0815C0.934634 11.1063 0.937532 11.1313 0.946259 11.1551C0.954986 11.1788 0.969343 11.2006 0.98838 11.219C1.00742 11.2375 1.0307 11.2522 1.05669 11.2622L2.41297 11.7797C2.43826 11.7892 2.4655 11.7942 2.49302 11.7942C2.54368 11.7944 2.59251 11.7776 2.62964 11.7473C3.91041 10.6973 5.79901 9.15516 6.25288 8.80125C7.12781 9.24656 8.24128 9.39211 9.26269 9.18844C10.2286 8.99578 11.0302 8.51086 11.5192 7.8232C12.3955 6.59062 12.3125 5.07281 11.4371 4.01648C11.5489 3.83774 11.6208 3.64189 11.6489 3.43945C11.7299 3.44586 11.8081 3.44898 11.8837 3.44883C13.2267 3.44883 13.7998 2.51695 14.2318 1.81641L14.3015 1.7018C14.314 1.68152 14.322 1.65925 14.3248 1.63628C14.3276 1.61331 14.3252 1.59008 14.3177 1.56792C14.3103 1.54577 14.298 1.52511 14.2814 1.50714C14.2649 1.48917 14.2445 1.47424 14.2214 1.4632ZM10.5445 2.66906C10.6721 2.64562 10.8551 2.63531 11.0043 2.72156C11.1126 2.78437 11.1868 2.88984 11.2263 3.01828C10.9474 2.95002 10.6845 2.83893 10.4498 2.69016C10.4813 2.68242 10.5125 2.67492 10.5445 2.66906ZM10.0618 2.8718C10.4067 3.12335 10.8145 3.2995 11.2519 3.38578C11.2368 3.49989 11.2042 3.61168 11.155 3.71812C10.8094 3.39635 10.3873 3.1454 9.91882 2.98312C9.96348 2.94313 10.0113 2.90593 10.0618 2.8718ZM4.32212 6.72211L4.82482 7.01578L4.12334 8.01984L3.63691 7.73859L4.32212 6.72211ZM11.1796 7.63617C10.7473 8.24391 10.0352 8.67328 9.17384 8.84484C8.20445 9.0382 7.14595 8.88562 6.34147 8.43656C6.21419 8.36625 6.10853 8.445 6.05783 8.48344C6.02821 8.50687 5.98739 8.53734 5.93242 8.5807C5.83343 8.65875 5.68908 8.7743 5.50363 8.92383C5.19198 9.17484 4.75945 9.52617 4.21779 9.96773C3.46828 10.5785 2.71342 11.197 2.45193 11.4113L1.42438 11.0191L3.43305 8.04094L4.07637 8.41406C4.10912 8.43293 4.14741 8.44303 4.18657 8.44312C4.22079 8.44311 4.25443 8.43539 4.28428 8.4207C4.31413 8.40601 4.33919 8.38484 4.35708 8.35922L5.26749 7.05469C5.29459 7.01593 5.3035 6.96944 5.29236 6.92502C5.28121 6.8806 5.25086 6.84172 5.20772 6.81656L4.52704 6.41812L5.92095 4.35164C6.80148 3.32836 8.21566 2.90789 9.47348 3.21961C9.50482 3.23723 9.54114 3.24681 9.57835 3.24726C9.82706 3.31768 10.0645 3.41574 10.2849 3.53906C11.7879 4.37836 12.189 6.21609 11.1796 7.63641V7.63617ZM9.55193 4.57594C9.34164 4.4591 9.10694 4.38027 8.86155 4.34406C8.61617 4.30784 8.36502 4.31496 8.12281 4.365C7.58915 4.47164 7.10886 4.77492 6.80895 5.19726C6.20592 6.04547 6.453 7.1475 7.35995 7.65351C7.65778 7.81989 8.00358 7.90797 8.35655 7.90734C8.50201 7.90729 8.647 7.8929 8.78881 7.86445C9.32246 7.75781 9.80275 7.45453 10.1027 7.03219C10.7057 6.18398 10.4591 5.08219 9.55193 4.57594ZM9.76326 6.84609C9.52461 7.18592 9.14235 7.42882 8.70022 7.52156C8.50958 7.56131 8.31183 7.56728 8.11854 7.53911C7.92525 7.51094 7.74029 7.4492 7.57448 7.3575C6.85244 6.95461 6.66139 6.06844 7.14755 5.3843C7.386 5.04436 7.7682 4.80136 8.21032 4.70859C8.32283 4.68613 8.43783 4.67473 8.5532 4.67461C8.83113 4.67329 9.10367 4.74202 9.33847 4.87266C10.0589 5.27555 10.2502 6.16102 9.76326 6.84609Z" fill="white"/>
</g>
<defs>
<clipPath id="clip0_12_136">
<rect width="13.6615" height="12" fill="white" transform="translate(0.800003)"/>
</clipPath>
</defs>
</svg>
