<svg width="13" height="15" viewBox="0 0 13 15" fill="none" xmlns="http://www.w3.org/2000/svg">
<path d="M5.09723 13.2315V11.1673C5.09722 10.6442 5.49803 10.2192 5.9945 10.2159H7.81742C8.31611 10.2159 8.72037 10.6419 8.72037 11.1673V13.2255C8.72036 13.6792 9.06778 14.0479 9.49838 14.0512H10.7421C11.3229 14.0528 11.8805 13.8108 12.2917 13.3786C12.703 12.9465 12.9341 12.3596 12.9341 11.7477V5.88403C12.9341 5.38969 12.7261 4.92077 12.3662 4.60361L8.14112 1.04356C7.40257 0.420862 6.34773 0.440977 5.63105 1.09142L1.49681 4.60361C1.11989 4.91142 0.894616 5.38173 0.883484 5.88403V11.7417C0.883484 13.0172 1.8649 14.0512 3.07554 14.0512H4.29083C4.49815 14.0528 4.6975 13.9672 4.84464 13.8133C4.99177 13.6594 5.07452 13.4499 5.07451 13.2315H5.09723Z" fill="white"/>
</svg>
