<svg width="25" height="25" viewBox="0 0 25 25" fill="none" xmlns="http://www.w3.org/2000/svg">
<g clip-path="url(#clip0_8_125)">
<path d="M12.3231 5C8.23194 5 4.92308 7.504 4.92308 10.6C4.92308 14.8 12.3231 21 12.3231 21C12.3231 21 19.7231 14.8 19.7231 10.6C19.7231 7.504 16.4142 5 12.3231 5ZM7.03737 10.6C7.03737 8.392 9.40537 6.6 12.3231 6.6C15.2408 6.6 17.6088 8.392 17.6088 10.6C17.6088 12.904 14.5642 16.352 12.3231 18.504C10.1242 16.368 7.03737 12.88 7.03737 10.6Z" fill="white"/>
<path d="M12.3231 14C13.895 14 15.1692 12.6569 15.1692 11C15.1692 9.34315 13.895 8 12.3231 8C10.7512 8 9.47693 9.34315 9.47693 11C9.47693 12.6569 10.7512 14 12.3231 14Z" fill="white"/>
</g>
<defs>
<clipPath id="clip0_8_125">
<rect x="0.369232" width="23.9077" height="25" rx="6" fill="white"/>
</clipPath>
</defs>
</svg>
