<svg width="11" height="12" viewBox="0 0 11 12" fill="none" xmlns="http://www.w3.org/2000/svg">
<path d="M3.82219 8.12989C4.74413 8.06028 5.67031 8.06028 6.59225 8.12989C7.0943 8.15731 7.59396 8.21616 8.08809 8.30605C9.15733 8.5089 9.85539 8.83986 10.1546 9.37367C10.3792 9.79028 10.3792 10.2862 10.1546 10.7028C9.85539 11.2367 9.18503 11.589 8.07701 11.7705C7.58327 11.8637 7.08349 11.9244 6.58117 11.952C6.1158 12 5.65043 12 5.17952 12H4.33188C4.15459 11.9786 3.98285 11.968 3.81665 11.968C3.31431 11.9438 2.81441 11.8849 2.32081 11.7918C1.25156 11.5996 0.553508 11.258 0.254341 10.7242C0.138852 10.5174 0.077966 10.2864 0.0769863 10.0516C0.0746498 9.81535 0.133694 9.58228 0.248801 9.37367C0.542428 8.83986 1.24048 8.49288 2.32081 8.30605C2.81659 8.21487 3.31819 8.15602 3.82219 8.12989ZM5.20168 0C7.05893 0 8.56454 1.45069 8.56454 3.24021C8.56454 5.02973 7.05893 6.48043 5.20168 6.48043C3.34442 6.48043 1.83882 5.02973 1.83882 3.24021C1.83882 1.45069 3.34442 0 5.20168 0Z" fill="white"/>
</svg>
