<svg width="16" height="13" viewBox="0 0 16 13" fill="none" xmlns="http://www.w3.org/2000/svg">
<g clip-path="url(#clip0_8_122)">
<path d="M5.49412 6.5C4.66162 6.52257 3.98072 6.81145 3.45141 7.36666H2.4185C1.99711 7.36666 1.64252 7.27526 1.35475 7.09244C1.06697 6.90963 0.92308 6.64218 0.92308 6.2901C0.92308 4.6967 1.24169 3.9 1.87891 3.9C1.90975 3.9 2.02152 3.94739 2.21423 4.04219C2.40693 4.13698 2.65746 4.2329 2.96579 4.32995C3.27412 4.42699 3.57989 4.47552 3.88308 4.47552C4.22739 4.47552 4.56912 4.42361 4.90829 4.31979C4.88259 4.4868 4.86975 4.63576 4.86975 4.76666C4.86975 5.39409 5.07787 5.97187 5.49412 6.5ZM13.7497 10.813C13.7497 11.3547 13.5622 11.7824 13.187 12.0961C12.8119 12.4098 12.3134 12.5667 11.6916 12.5667H4.95454C4.33273 12.5667 3.83426 12.4098 3.45912 12.0961C3.08398 11.7824 2.89641 11.3547 2.89641 10.813C2.89641 10.5738 2.90541 10.3402 2.92339 10.1122C2.94138 9.88428 2.97735 9.63828 3.03131 9.37421C3.08527 9.11015 3.15336 8.86527 3.23558 8.63958C3.3178 8.41388 3.42829 8.19383 3.56704 7.97942C3.70579 7.76501 3.86509 7.5822 4.04496 7.43099C4.22482 7.27977 4.4445 7.15902 4.70402 7.06875C4.96353 6.97847 5.25003 6.93333 5.5635 6.93333C5.61489 6.93333 5.72537 6.98185 5.89496 7.0789C6.06454 7.17595 6.25211 7.28428 6.45766 7.4039C6.66322 7.52352 6.93815 7.63185 7.28246 7.7289C7.62676 7.82595 7.97364 7.87448 8.32308 7.87448C8.67252 7.87448 9.0194 7.82595 9.36371 7.7289C9.70801 7.63185 9.98294 7.52352 10.1885 7.4039C10.3941 7.28428 10.5816 7.17595 10.7512 7.0789C10.9208 6.98185 11.0313 6.93333 11.0827 6.93333C11.3961 6.93333 11.6826 6.97847 11.9421 7.06875C12.2017 7.15902 12.4213 7.27977 12.6012 7.43099C12.7811 7.5822 12.9404 7.76501 13.0791 7.97942C13.2179 8.19383 13.3284 8.41388 13.4106 8.63958C13.4928 8.86527 13.5609 9.11015 13.6149 9.37421C13.6688 9.63828 13.7048 9.88428 13.7228 10.1122C13.7408 10.3402 13.7497 10.5738 13.7497 10.813ZM5.85641 2.16667C5.85641 2.64514 5.66371 3.05364 5.27829 3.39219C4.89287 3.73073 4.4278 3.9 3.88308 3.9C3.33836 3.9 2.87329 3.73073 2.48787 3.39219C2.10246 3.05364 1.90975 2.64514 1.90975 2.16667C1.90975 1.68819 2.10246 1.27969 2.48787 0.941146C2.87329 0.602605 3.33836 0.433334 3.88308 0.433334C4.4278 0.433334 4.89287 0.602605 5.27829 0.941146C5.66371 1.27969 5.85641 1.68819 5.85641 2.16667ZM11.2831 4.76666C11.2831 5.48437 10.994 6.09713 10.4159 6.60494C9.83777 7.11276 9.14016 7.36666 8.32308 7.36666C7.506 7.36666 6.80839 7.11276 6.23027 6.60494C5.65214 6.09713 5.36308 5.48437 5.36308 4.76666C5.36308 4.04896 5.65214 3.4362 6.23027 2.92838C6.80839 2.42057 7.506 2.16667 8.32308 2.16667C9.14016 2.16667 9.83777 2.42057 10.4159 2.92838C10.994 3.4362 11.2831 4.04896 11.2831 4.76666ZM15.7231 6.2901C15.7231 6.64218 15.5792 6.90963 15.2914 7.09244C15.0036 7.27526 14.6491 7.36666 14.2277 7.36666H13.1947C12.6654 6.81145 11.9845 6.52257 11.152 6.5C11.5683 5.97187 11.7764 5.39409 11.7764 4.76666C11.7764 4.63576 11.7636 4.4868 11.7379 4.31979C12.077 4.42361 12.4188 4.47552 12.7631 4.47552C13.0663 4.47552 13.372 4.42699 13.6804 4.32995C13.9887 4.2329 14.2392 4.13698 14.4319 4.04219C14.6246 3.94739 14.7364 3.9 14.7672 3.9C15.4045 3.9 15.7231 4.6967 15.7231 6.2901ZM14.7364 2.16667C14.7364 2.64514 14.5437 3.05364 14.1583 3.39219C13.7729 3.73073 13.3078 3.9 12.7631 3.9C12.2184 3.9 11.7533 3.73073 11.3679 3.39219C10.9825 3.05364 10.7897 2.64514 10.7897 2.16667C10.7897 1.68819 10.9825 1.27969 11.3679 0.941146C11.7533 0.602605 12.2184 0.433334 12.7631 0.433334C13.3078 0.433334 13.7729 0.602605 14.1583 0.941146C14.5437 1.27969 14.7364 1.68819 14.7364 2.16667Z" fill="white"/>
</g>
<defs>
<clipPath id="clip0_8_122">
<rect width="14.8" height="13" fill="white" transform="translate(0.92308)"/>
</clipPath>
</defs>
</svg>
